<?xml version="1.0" encoding="UTF-8" standalone="no"?>
<!DOCTYPE svg PUBLIC "-//W3C//DTD SVG 1.1//EN"
 "http://www.w3.org/Graphics/SVG/1.1/DTD/svg11.dtd">
<!-- Generated by graphviz version 2.38.0 (20140413.2041)
 -->
<!-- Title: G Pages: 1 -->
<svg width="512pt" height="131pt"
 viewBox="0.00 0.00 511.94 131.00" xmlns="http://www.w3.org/2000/svg" xmlns:xlink="http://www.w3.org/1999/xlink">
<g id="graph0" class="graph" transform="scale(1 1) rotate(0) translate(4 127)">
<title>G</title>
<polygon fill="white" stroke="none" points="-4,4 -4,-127 507.942,-127 507.942,4 -4,4"/>
<!-- 0 -->
<g id="node1" class="node"><title>0</title>
<ellipse fill="none" stroke="black" cx="62.3945" cy="-105" rx="62.2891" ry="18"/>
<text text-anchor="middle" x="62.3945" y="-101.3" font-family="Times,serif" font-size="14.00">Incipient stage</text>
</g>
<!-- 0&#45;&gt;0 -->
<g id="edge1" class="edge"><title>0&#45;&gt;0</title>
<path fill="none" stroke="black" d="M118.745,-112.752C132.53,-112.178 142.789,-109.594 142.789,-105 142.789,-101.626 137.256,-99.3368 128.858,-98.131"/>
<polygon fill="black" stroke="black" points="129.012,-94.6313 118.745,-97.248 128.403,-101.605 129.012,-94.6313"/>
<text text-anchor="middle" x="210.289" y="-101.3" font-family="Times,serif" font-size="14.00">Speciation&#45;initiation rate</text>
</g>
<!-- 1 -->
<g id="node2" class="node"><title>1</title>
<ellipse fill="none" stroke="black" cx="473.394" cy="-105" rx="30.5947" ry="18"/>
<text text-anchor="middle" x="473.394" y="-101.3" font-family="Times,serif" font-size="14.00">Good</text>
</g>
<!-- 0&#45;&gt;1 -->
<g id="edge2" class="edge"><title>0&#45;&gt;1</title>
<path fill="none" stroke="black" d="M124.817,-105C210.11,-105 360.686,-105 432.747,-105"/>
<polygon fill="black" stroke="black" points="432.793,-108.5 442.793,-105 432.793,-101.5 432.793,-108.5"/>
<text text-anchor="middle" x="283.818" y="-111.8" font-family="Times,serif" font-size="14.00">Speciation&#45;completion rate</text>
</g>
<!-- 2 -->
<g id="node3" class="node"><title>2</title>
<ellipse fill="none" stroke="black" cx="267.394" cy="-18" rx="36.2938" ry="18"/>
<text text-anchor="middle" x="267.394" y="-14.3" font-family="Times,serif" font-size="14.00">Extinct</text>
</g>
<!-- 0&#45;&gt;2 -->
<g id="edge3" class="edge"><title>0&#45;&gt;2</title>
<path fill="none" stroke="black" d="M96.7069,-89.7729C133.851,-74.3717 192.859,-49.9049 230.852,-34.1518"/>
<polygon fill="black" stroke="black" points="232.606,-37.2134 240.503,-30.1501 229.925,-30.7472 232.606,-37.2134"/>
<text text-anchor="middle" x="217.894" y="-57.8" font-family="Times,serif" font-size="14.00">Extinction rate</text>
</g>
<!-- 1&#45;&gt;0 -->
<g id="edge4" class="edge"><title>1&#45;&gt;0</title>
<path fill="none" stroke="black" d="M443.927,-99.4184C419.285,-95.0491 383.153,-89.3344 351.318,-87 291.479,-82.6121 276.216,-83.5096 216.318,-87 187.381,-88.6862 155.538,-92.1412 128.361,-95.5775"/>
<polygon fill="black" stroke="black" points="127.659,-92.1389 118.189,-96.8898 128.555,-99.0814 127.659,-92.1389"/>
<text text-anchor="middle" x="283.818" y="-90.8" font-family="Times,serif" font-size="14.00">Speciation&#45;initiation rate</text>
</g>
<!-- 1&#45;&gt;2 -->
<g id="edge5" class="edge"><title>1&#45;&gt;2</title>
<path fill="none" stroke="black" d="M448.955,-93.9156C412.964,-79.0652 345.467,-51.2144 303.681,-33.9726"/>
<polygon fill="black" stroke="black" points="304.99,-30.7267 294.411,-30.1477 302.32,-37.1975 304.99,-30.7267"/>
<text text-anchor="middle" x="423.894" y="-57.8" font-family="Times,serif" font-size="14.00">Extinction rate</text>
</g>
</g>
</svg>
